<?xml version="1.0" encoding="UTF-8" standalone="no"?>
<svg
   xmlns:dc="http://purl.org/dc/elements/1.1/"
   xmlns:cc="http://creativecommons.org/ns#"
   xmlns:rdf="http://www.w3.org/1999/02/22-rdf-syntax-ns#"
   xmlns:svg="http://www.w3.org/2000/svg"
   xmlns="http://www.w3.org/2000/svg"
   xmlns:sodipodi="http://sodipodi.sourceforge.net/DTD/sodipodi-0.dtd"
   xmlns:inkscape="http://www.inkscape.org/namespaces/inkscape"
   viewBox="0 0 512 512"
   version="1.1"
   id="svg4"
   sodipodi:docname="favicon.svg"
   width="512"
   height="512"
   inkscape:version="0.92.4 (5da689c313, 2019-01-14)">
  <metadata
     id="metadata10">
    <rdf:RDF>
      <cc:Work
         rdf:about="">
        <dc:format>image/svg+xml</dc:format>
        <dc:type
           rdf:resource="http://purl.org/dc/dcmitype/StillImage" />
        <dc:title />
      </cc:Work>
    </rdf:RDF>
  </metadata>
  <defs
     id="defs8" />
  <sodipodi:namedview
     pagecolor="#ffffff"
     bordercolor="#666666"
     borderopacity="1"
     objecttolerance="10"
     gridtolerance="10"
     guidetolerance="10"
     inkscape:pageopacity="0"
     inkscape:pageshadow="2"
     inkscape:window-width="1920"
     inkscape:window-height="1080"
     id="namedview6"
     showgrid="true"
     inkscape:zoom="1.84375"
     inkscape:cx="166.71007"
     inkscape:cy="285.54834"
     inkscape:window-x="0"
     inkscape:window-y="0"
     inkscape:window-maximized="1"
     inkscape:current-layer="layer2">
    <inkscape:grid
       type="xygrid"
       id="grid4520"
       spacingx="16"
       spacingy="16"
       empspacing="4" />
  </sodipodi:namedview>
  <g
     inkscape:groupmode="layer"
     id="layer2"
     inkscape:label="Layer 1">
    <path
       style="stroke-width:0.875;fill:#b7c8c4"
       d="m 88,32 v 142.94141 l 90.08398,54.05078 C 179.42979,228.36207 180.92264,228 182.5,228 h 147 c 5.775,0 10.5,4.725 10.5,10.5 v 7 c 0,5.775 -4.725,10.5 -10.5,10.5 H 223.0957 l 46.66602,28 H 329.5 c 5.775,0 10.5,4.725 10.5,10.5 v 7 c 0,5.775 -4.725,10.5 -10.5,10.5 H 316.42773 L 424,376.54297 V 172 H 305 c -11.55,0 -21,-9.45 -21,-21 V 32 Z"
       id="path834" />
    <path
       style="stroke-width:0.875;fill:#b7c8c4"
       d="m 312,32 v 112 h 112 v -5.33789 c 0,-5.5125 -2.1875,-10.84961 -6.125,-14.78711 L 332.21289,38.125 C 328.27539,34.1875 322.93789,32 317.33789,32 Z"
       id="path2" />
    <path
       style="stroke-width:0.875;fill:#536c67"
       d="M 88 174.94141 L 88 480 L 424 480 L 424 376.54297 L 316.42773 312 L 182.5 312 C 176.725 312 172 307.275 172 301.5 L 172 294.5 C 172 288.725 176.725 284 182.5 284 L 269.76172 284 L 223.0957 256 L 182.5 256 C 176.725 256 172 251.275 172 245.5 L 172 238.5 C 172 234.30236 174.50255 230.66904 178.08398 228.99219 L 88 174.94141 z M 182.5 340 L 329.5 340 C 335.275 340 340 344.725 340 350.5 L 340 357.5 C 340 363.275 335.275 368 329.5 368 L 182.5 368 C 176.725 368 172 363.275 172 357.5 L 172 350.5 C 172 344.725 176.725 340 182.5 340 z "
       id="path826" />
  </g>
</svg>
